# xmcd
#
# Track frame offsets:
#	182
#	10435
#	26992
#	43235
#	55277
#	68292
#	77487
#	91045
#	103310
#	116390
#	129002
#	141070
#	149760
#	162877
#	175120
#	187735
#
# Disc length: 2627
#
# Revision: 4
# Processed by: cddbd v1.5.1PL0 Copyright (c) Steve Scherf et al.
# Submitted via: CDex 1.40Beta9
# Normalized: r3:TDELIM( - )
#
DISCID=ce0a4110
DTITLE=Various Artist - Golden Oldies Of The Year (16 Unforgettable Superhits)
DYEAR=1988
DGENRE=Oldies
TTITLE0=Louis Armstrong - What A Wonderful World
TTITLE1=The Righteous Brothers - You've Lost That Lovin' Feeling
TTITLE2=Nina Simone - My Baby Just Cares For Me
TTITLE3=Chubby Checker - The Twist
TTITLE4=The Contours - Do You Love Me
TTITLE5=Ritchie Valens - La Bamba
TTITLE6=The Four Tops - Reach Out I'll Be There
TTITLE7=The Temptations - My Girl
TTITLE8=Muddy Waters - Mannish Boy
TTITLE9=Percy Sledge - When A Man Loves A Woman
TTITLE10=James Brown - It's A Man's World
TTITLE11=Eddie Cochran - C'mon Everybody
TTITLE12=Ben E. King - Stand By Me
TTITLE13=Jackie Wilson - Reet Petite
TTITLE14=Roy Orbison - Crying
TTITLE15=Sam Cooke - Wonderful World
EXTD=YEAR: 1988 ID3G: 11
EXTT0=Louis Armstrong\n
EXTT1=The righteous brothers\n
EXTT2=Nina Simone\n
EXTT3=Chubby Checker\n
EXTT4=The contours\n
EXTT5=Ritchie Vallens\n
EXTT6=The four tops\n
EXTT7=The temptations\n
EXTT8=Muddy Waters\n
EXTT9=Percy Sledge\n
EXTT10=James Brown\n
EXTT11=Eddy Cochran\n
EXTT12=Ben E King\n
EXTT13=Jackie Wilson\n
EXTT14=Roy Orbison\n
EXTT15=Sam Cooke\n
PLAYORDER=
